<mxfile host="Electron" modified="2024-07-03T00:43:33.579Z" agent="Mozilla/5.0 (Macintosh; Intel Mac OS X 10_15_7) AppleWebKit/537.36 (KHTML, like Gecko) draw.io/24.6.4 Chrome/124.0.6367.207 Electron/30.0.6 Safari/537.36" etag="9Bxo1QMiNOes3W6fyZ3I" version="24.6.4" type="device">
  <diagram name="Page-1" id="pZ5eU63HCvIq_7vBTEwp">
    <mxGraphModel dx="1434" dy="854" grid="1" gridSize="10" guides="1" tooltips="1" connect="1" arrows="1" fold="1" page="1" pageScale="1" pageWidth="850" pageHeight="1100" math="0" shadow="0">
      <root>
        <mxCell id="0" />
        <mxCell id="1" parent="0" />
        <mxCell id="W2UiMRs52bV-lyf4u7QG-1" value="" style="rounded=0;whiteSpace=wrap;html=1;" parent="1" vertex="1">
          <mxGeometry y="200" width="920" height="460" as="geometry" />
        </mxCell>
        <mxCell id="W2UiMRs52bV-lyf4u7QG-11" value="" style="group" parent="1" vertex="1" connectable="0">
          <mxGeometry x="50" y="450" width="160" height="160" as="geometry" />
        </mxCell>
        <mxCell id="W2UiMRs52bV-lyf4u7QG-2" value="" style="rounded=0;whiteSpace=wrap;html=1;fillColor=#d5e8d4;strokeColor=#82b366;" parent="W2UiMRs52bV-lyf4u7QG-11" vertex="1">
          <mxGeometry width="160" height="160" as="geometry" />
        </mxCell>
        <mxCell id="W2UiMRs52bV-lyf4u7QG-3" value="" style="aspect=fixed;sketch=0;html=1;dashed=0;whitespace=wrap;verticalLabelPosition=bottom;verticalAlign=top;fillColor=#2875E2;strokeColor=#ffffff;points=[[0.005,0.63,0],[0.1,0.2,0],[0.9,0.2,0],[0.5,0,0],[0.995,0.63,0],[0.72,0.99,0],[0.5,1,0],[0.28,0.99,0]];shape=mxgraph.kubernetes.icon2;kubernetesLabel=1;prIcon=pod" parent="W2UiMRs52bV-lyf4u7QG-11" vertex="1">
          <mxGeometry width="22.727272727272727" height="21.81818181818182" as="geometry" />
        </mxCell>
        <mxCell id="W2UiMRs52bV-lyf4u7QG-4" value="apiserver" style="rounded=0;whiteSpace=wrap;html=1;fillColor=#dae8fc;strokeColor=#6c8ebf;" parent="W2UiMRs52bV-lyf4u7QG-11" vertex="1">
          <mxGeometry x="28.75" y="40" width="102.5" height="70" as="geometry" />
        </mxCell>
        <mxCell id="W2UiMRs52bV-lyf4u7QG-5" value="" style="image;sketch=0;aspect=fixed;html=1;points=[];align=center;fontSize=12;image=img/lib/mscae/Docker.svg;" parent="W2UiMRs52bV-lyf4u7QG-11" vertex="1">
          <mxGeometry x="28.75" y="40" width="22.727272727272727" height="18.636363636363637" as="geometry" />
        </mxCell>
        <mxCell id="W2UiMRs52bV-lyf4u7QG-6" style="edgeStyle=orthogonalEdgeStyle;rounded=0;orthogonalLoop=1;jettySize=auto;html=1;exitX=0.5;exitY=1;exitDx=0;exitDy=0;startArrow=oval;startFill=0;endArrow=oval;endFill=0;" parent="W2UiMRs52bV-lyf4u7QG-11" source="W2UiMRs52bV-lyf4u7QG-8" edge="1">
          <mxGeometry relative="1" as="geometry">
            <mxPoint x="79.96999999999997" y="110" as="sourcePoint" />
            <mxPoint x="80" y="160" as="targetPoint" />
            <Array as="points">
              <mxPoint x="80" y="105" />
            </Array>
          </mxGeometry>
        </mxCell>
        <mxCell id="W2UiMRs52bV-lyf4u7QG-7" value="exposed" style="edgeLabel;html=1;align=center;verticalAlign=middle;resizable=0;points=[];" parent="W2UiMRs52bV-lyf4u7QG-6" vertex="1" connectable="0">
          <mxGeometry x="-0.0648" relative="1" as="geometry">
            <mxPoint as="offset" />
          </mxGeometry>
        </mxCell>
        <mxCell id="W2UiMRs52bV-lyf4u7QG-8" value="&lt;font style=&quot;font-size: 11px;&quot;&gt;port: 8000&lt;/font&gt;" style="rounded=0;whiteSpace=wrap;html=1;" parent="W2UiMRs52bV-lyf4u7QG-11" vertex="1">
          <mxGeometry x="50" y="100" width="60" height="10" as="geometry" />
        </mxCell>
        <mxCell id="W2UiMRs52bV-lyf4u7QG-9" value="simple-replicaset-bzgpf" style="text;html=1;align=center;verticalAlign=middle;whiteSpace=wrap;rounded=0;" parent="W2UiMRs52bV-lyf4u7QG-11" vertex="1">
          <mxGeometry y="120" width="60" height="40" as="geometry" />
        </mxCell>
        <mxCell id="W2UiMRs52bV-lyf4u7QG-10" value="&lt;font style=&quot;font-size: 8px;&quot;&gt;app: simple-replicaset&lt;/font&gt;" style="sketch=0;pointerEvents=1;shadow=0;dashed=0;html=1;strokeColor=none;fillColor=#3399FF;labelPosition=center;verticalLabelPosition=bottom;verticalAlign=top;align=center;outlineConnect=0;shape=mxgraph.veeam2.metadata_file;" parent="W2UiMRs52bV-lyf4u7QG-11" vertex="1">
          <mxGeometry x="131.25" width="14.000000000000004" height="19.5" as="geometry" />
        </mxCell>
        <mxCell id="W2UiMRs52bV-lyf4u7QG-12" value="" style="group" parent="1" vertex="1" connectable="0">
          <mxGeometry x="270" y="450" width="160" height="160" as="geometry" />
        </mxCell>
        <mxCell id="W2UiMRs52bV-lyf4u7QG-13" value="" style="rounded=0;whiteSpace=wrap;html=1;fillColor=#d5e8d4;strokeColor=#82b366;" parent="W2UiMRs52bV-lyf4u7QG-12" vertex="1">
          <mxGeometry width="160" height="160" as="geometry" />
        </mxCell>
        <mxCell id="W2UiMRs52bV-lyf4u7QG-14" value="" style="aspect=fixed;sketch=0;html=1;dashed=0;whitespace=wrap;verticalLabelPosition=bottom;verticalAlign=top;fillColor=#2875E2;strokeColor=#ffffff;points=[[0.005,0.63,0],[0.1,0.2,0],[0.9,0.2,0],[0.5,0,0],[0.995,0.63,0],[0.72,0.99,0],[0.5,1,0],[0.28,0.99,0]];shape=mxgraph.kubernetes.icon2;kubernetesLabel=1;prIcon=pod" parent="W2UiMRs52bV-lyf4u7QG-12" vertex="1">
          <mxGeometry width="22.727272727272727" height="21.81818181818182" as="geometry" />
        </mxCell>
        <mxCell id="W2UiMRs52bV-lyf4u7QG-15" value="apiserver" style="rounded=0;whiteSpace=wrap;html=1;fillColor=#dae8fc;strokeColor=#6c8ebf;" parent="W2UiMRs52bV-lyf4u7QG-12" vertex="1">
          <mxGeometry x="28.75" y="40" width="102.5" height="70" as="geometry" />
        </mxCell>
        <mxCell id="W2UiMRs52bV-lyf4u7QG-16" value="" style="image;sketch=0;aspect=fixed;html=1;points=[];align=center;fontSize=12;image=img/lib/mscae/Docker.svg;" parent="W2UiMRs52bV-lyf4u7QG-12" vertex="1">
          <mxGeometry x="28.75" y="40" width="22.727272727272727" height="18.636363636363637" as="geometry" />
        </mxCell>
        <mxCell id="W2UiMRs52bV-lyf4u7QG-17" style="edgeStyle=orthogonalEdgeStyle;rounded=0;orthogonalLoop=1;jettySize=auto;html=1;exitX=0.5;exitY=1;exitDx=0;exitDy=0;startArrow=oval;startFill=0;endArrow=oval;endFill=0;" parent="W2UiMRs52bV-lyf4u7QG-12" edge="1">
          <mxGeometry relative="1" as="geometry">
            <mxPoint x="80.00000000000006" y="110" as="sourcePoint" />
            <mxPoint x="80" y="160" as="targetPoint" />
            <Array as="points">
              <mxPoint x="80" y="105" />
            </Array>
          </mxGeometry>
        </mxCell>
        <mxCell id="W2UiMRs52bV-lyf4u7QG-18" value="exposed" style="edgeLabel;html=1;align=center;verticalAlign=middle;resizable=0;points=[];" parent="W2UiMRs52bV-lyf4u7QG-17" vertex="1" connectable="0">
          <mxGeometry x="-0.0648" relative="1" as="geometry">
            <mxPoint as="offset" />
          </mxGeometry>
        </mxCell>
        <mxCell id="W2UiMRs52bV-lyf4u7QG-21" value="&lt;font style=&quot;font-size: 8px;&quot;&gt;app: simple-replicaset&lt;/font&gt;" style="sketch=0;pointerEvents=1;shadow=0;dashed=0;html=1;strokeColor=none;fillColor=#3399FF;labelPosition=center;verticalLabelPosition=bottom;verticalAlign=top;align=center;outlineConnect=0;shape=mxgraph.veeam2.metadata_file;" parent="W2UiMRs52bV-lyf4u7QG-12" vertex="1">
          <mxGeometry x="131.25" width="14.000000000000004" height="19.5" as="geometry" />
        </mxCell>
        <mxCell id="A1uc-wqMhshC5u5DjsCO-2" value="&lt;font style=&quot;font-size: 11px;&quot;&gt;port: 8000&lt;/font&gt;" style="rounded=0;whiteSpace=wrap;html=1;" vertex="1" parent="W2UiMRs52bV-lyf4u7QG-12">
          <mxGeometry x="50" y="100" width="60" height="10" as="geometry" />
        </mxCell>
        <mxCell id="A1uc-wqMhshC5u5DjsCO-7" value="simple-replicaset-hj9th" style="text;html=1;align=center;verticalAlign=middle;whiteSpace=wrap;rounded=0;" vertex="1" parent="W2UiMRs52bV-lyf4u7QG-12">
          <mxGeometry y="120" width="60" height="40" as="geometry" />
        </mxCell>
        <mxCell id="W2UiMRs52bV-lyf4u7QG-22" value="" style="group" parent="1" vertex="1" connectable="0">
          <mxGeometry x="480" y="450" width="160" height="160" as="geometry" />
        </mxCell>
        <mxCell id="W2UiMRs52bV-lyf4u7QG-23" value="" style="rounded=0;whiteSpace=wrap;html=1;fillColor=#d5e8d4;strokeColor=#82b366;" parent="W2UiMRs52bV-lyf4u7QG-22" vertex="1">
          <mxGeometry width="160" height="160" as="geometry" />
        </mxCell>
        <mxCell id="W2UiMRs52bV-lyf4u7QG-24" value="" style="aspect=fixed;sketch=0;html=1;dashed=0;whitespace=wrap;verticalLabelPosition=bottom;verticalAlign=top;fillColor=#2875E2;strokeColor=#ffffff;points=[[0.005,0.63,0],[0.1,0.2,0],[0.9,0.2,0],[0.5,0,0],[0.995,0.63,0],[0.72,0.99,0],[0.5,1,0],[0.28,0.99,0]];shape=mxgraph.kubernetes.icon2;kubernetesLabel=1;prIcon=pod" parent="W2UiMRs52bV-lyf4u7QG-22" vertex="1">
          <mxGeometry width="22.727272727272727" height="21.81818181818182" as="geometry" />
        </mxCell>
        <mxCell id="W2UiMRs52bV-lyf4u7QG-25" value="apiserver" style="rounded=0;whiteSpace=wrap;html=1;fillColor=#dae8fc;strokeColor=#6c8ebf;" parent="W2UiMRs52bV-lyf4u7QG-22" vertex="1">
          <mxGeometry x="28.75" y="40" width="102.5" height="70" as="geometry" />
        </mxCell>
        <mxCell id="W2UiMRs52bV-lyf4u7QG-26" value="" style="image;sketch=0;aspect=fixed;html=1;points=[];align=center;fontSize=12;image=img/lib/mscae/Docker.svg;" parent="W2UiMRs52bV-lyf4u7QG-22" vertex="1">
          <mxGeometry x="28.75" y="40" width="22.727272727272727" height="18.636363636363637" as="geometry" />
        </mxCell>
        <mxCell id="W2UiMRs52bV-lyf4u7QG-27" style="edgeStyle=orthogonalEdgeStyle;rounded=0;orthogonalLoop=1;jettySize=auto;html=1;exitX=0.5;exitY=1;exitDx=0;exitDy=0;startArrow=oval;startFill=0;endArrow=oval;endFill=0;" parent="W2UiMRs52bV-lyf4u7QG-22" edge="1">
          <mxGeometry relative="1" as="geometry">
            <mxPoint x="80" y="110" as="sourcePoint" />
            <mxPoint x="80" y="160" as="targetPoint" />
            <Array as="points">
              <mxPoint x="80" y="105" />
            </Array>
          </mxGeometry>
        </mxCell>
        <mxCell id="W2UiMRs52bV-lyf4u7QG-28" value="exposed" style="edgeLabel;html=1;align=center;verticalAlign=middle;resizable=0;points=[];" parent="W2UiMRs52bV-lyf4u7QG-27" vertex="1" connectable="0">
          <mxGeometry x="-0.0648" relative="1" as="geometry">
            <mxPoint as="offset" />
          </mxGeometry>
        </mxCell>
        <mxCell id="W2UiMRs52bV-lyf4u7QG-31" value="&lt;font style=&quot;font-size: 8px;&quot;&gt;app: simple-replicaset&lt;/font&gt;" style="sketch=0;pointerEvents=1;shadow=0;dashed=0;html=1;strokeColor=none;fillColor=#3399FF;labelPosition=center;verticalLabelPosition=bottom;verticalAlign=top;align=center;outlineConnect=0;shape=mxgraph.veeam2.metadata_file;" parent="W2UiMRs52bV-lyf4u7QG-22" vertex="1">
          <mxGeometry x="131.25" width="14.000000000000004" height="19.5" as="geometry" />
        </mxCell>
        <mxCell id="A1uc-wqMhshC5u5DjsCO-3" value="&lt;font style=&quot;font-size: 11px;&quot;&gt;port: 8000&lt;/font&gt;" style="rounded=0;whiteSpace=wrap;html=1;" vertex="1" parent="W2UiMRs52bV-lyf4u7QG-22">
          <mxGeometry x="50" y="100" width="60" height="10" as="geometry" />
        </mxCell>
        <mxCell id="A1uc-wqMhshC5u5DjsCO-8" value="simple-replicaset-xm2nm" style="text;html=1;align=center;verticalAlign=middle;whiteSpace=wrap;rounded=0;" vertex="1" parent="W2UiMRs52bV-lyf4u7QG-22">
          <mxGeometry y="120" width="60" height="40" as="geometry" />
        </mxCell>
        <mxCell id="W2UiMRs52bV-lyf4u7QG-32" value="" style="group" parent="1" vertex="1" connectable="0">
          <mxGeometry x="710" y="450" width="160" height="160" as="geometry" />
        </mxCell>
        <mxCell id="W2UiMRs52bV-lyf4u7QG-33" value="" style="rounded=0;whiteSpace=wrap;html=1;fillColor=#d5e8d4;strokeColor=#82b366;" parent="W2UiMRs52bV-lyf4u7QG-32" vertex="1">
          <mxGeometry width="160" height="160" as="geometry" />
        </mxCell>
        <mxCell id="W2UiMRs52bV-lyf4u7QG-34" value="" style="aspect=fixed;sketch=0;html=1;dashed=0;whitespace=wrap;verticalLabelPosition=bottom;verticalAlign=top;fillColor=#2875E2;strokeColor=#ffffff;points=[[0.005,0.63,0],[0.1,0.2,0],[0.9,0.2,0],[0.5,0,0],[0.995,0.63,0],[0.72,0.99,0],[0.5,1,0],[0.28,0.99,0]];shape=mxgraph.kubernetes.icon2;kubernetesLabel=1;prIcon=pod" parent="W2UiMRs52bV-lyf4u7QG-32" vertex="1">
          <mxGeometry width="22.727272727272727" height="21.81818181818182" as="geometry" />
        </mxCell>
        <mxCell id="W2UiMRs52bV-lyf4u7QG-35" value="apiserver" style="rounded=0;whiteSpace=wrap;html=1;fillColor=#dae8fc;strokeColor=#6c8ebf;" parent="W2UiMRs52bV-lyf4u7QG-32" vertex="1">
          <mxGeometry x="28.75" y="40" width="102.5" height="70" as="geometry" />
        </mxCell>
        <mxCell id="W2UiMRs52bV-lyf4u7QG-36" value="" style="image;sketch=0;aspect=fixed;html=1;points=[];align=center;fontSize=12;image=img/lib/mscae/Docker.svg;" parent="W2UiMRs52bV-lyf4u7QG-32" vertex="1">
          <mxGeometry x="28.75" y="40" width="22.727272727272727" height="18.636363636363637" as="geometry" />
        </mxCell>
        <mxCell id="W2UiMRs52bV-lyf4u7QG-37" style="edgeStyle=orthogonalEdgeStyle;rounded=0;orthogonalLoop=1;jettySize=auto;html=1;exitX=0.5;exitY=1;exitDx=0;exitDy=0;startArrow=oval;startFill=0;endArrow=oval;endFill=0;" parent="W2UiMRs52bV-lyf4u7QG-32" source="A1uc-wqMhshC5u5DjsCO-4" edge="1">
          <mxGeometry relative="1" as="geometry">
            <mxPoint x="80" y="110" as="sourcePoint" />
            <mxPoint x="80" y="160" as="targetPoint" />
            <Array as="points">
              <mxPoint x="80" y="105" />
            </Array>
          </mxGeometry>
        </mxCell>
        <mxCell id="A1uc-wqMhshC5u5DjsCO-10" value="exposed" style="edgeLabel;html=1;align=center;verticalAlign=middle;resizable=0;points=[];" vertex="1" connectable="0" parent="W2UiMRs52bV-lyf4u7QG-37">
          <mxGeometry x="0.1039" y="-1" relative="1" as="geometry">
            <mxPoint as="offset" />
          </mxGeometry>
        </mxCell>
        <mxCell id="W2UiMRs52bV-lyf4u7QG-40" value="simple-pod" style="text;html=1;align=center;verticalAlign=middle;whiteSpace=wrap;rounded=0;" parent="W2UiMRs52bV-lyf4u7QG-32" vertex="1">
          <mxGeometry y="145" width="80" height="15" as="geometry" />
        </mxCell>
        <mxCell id="W2UiMRs52bV-lyf4u7QG-41" value="" style="sketch=0;pointerEvents=1;shadow=0;dashed=0;html=1;strokeColor=none;fillColor=#3399FF;labelPosition=center;verticalLabelPosition=bottom;verticalAlign=top;align=center;outlineConnect=0;shape=mxgraph.veeam2.metadata_file;" parent="W2UiMRs52bV-lyf4u7QG-32" vertex="1">
          <mxGeometry x="131.25" width="14.000000000000004" height="19.5" as="geometry" />
        </mxCell>
        <mxCell id="A1uc-wqMhshC5u5DjsCO-4" value="&lt;font style=&quot;font-size: 11px;&quot;&gt;port: 8000&lt;/font&gt;" style="rounded=0;whiteSpace=wrap;html=1;" vertex="1" parent="W2UiMRs52bV-lyf4u7QG-32">
          <mxGeometry x="50" y="100" width="60" height="10" as="geometry" />
        </mxCell>
        <mxCell id="W2UiMRs52bV-lyf4u7QG-45" style="edgeStyle=orthogonalEdgeStyle;rounded=0;orthogonalLoop=1;jettySize=auto;html=1;exitX=0.5;exitY=1;exitDx=0;exitDy=0;" parent="1" source="W2UiMRs52bV-lyf4u7QG-43" target="W2UiMRs52bV-lyf4u7QG-2" edge="1">
          <mxGeometry relative="1" as="geometry" />
        </mxCell>
        <mxCell id="W2UiMRs52bV-lyf4u7QG-46" style="edgeStyle=orthogonalEdgeStyle;rounded=0;orthogonalLoop=1;jettySize=auto;html=1;entryX=0.5;entryY=0;entryDx=0;entryDy=0;" parent="1" source="W2UiMRs52bV-lyf4u7QG-43" target="W2UiMRs52bV-lyf4u7QG-13" edge="1">
          <mxGeometry relative="1" as="geometry" />
        </mxCell>
        <mxCell id="W2UiMRs52bV-lyf4u7QG-47" style="edgeStyle=orthogonalEdgeStyle;rounded=0;orthogonalLoop=1;jettySize=auto;html=1;entryX=0.5;entryY=0;entryDx=0;entryDy=0;" parent="1" source="W2UiMRs52bV-lyf4u7QG-43" target="W2UiMRs52bV-lyf4u7QG-23" edge="1">
          <mxGeometry relative="1" as="geometry" />
        </mxCell>
        <mxCell id="W2UiMRs52bV-lyf4u7QG-43" value="simple-replicaset" style="rounded=0;whiteSpace=wrap;html=1;fillColor=#e1d5e7;strokeColor=#9673a6;" parent="1" vertex="1">
          <mxGeometry x="340" y="270" width="220" height="100" as="geometry" />
        </mxCell>
        <mxCell id="W2UiMRs52bV-lyf4u7QG-44" value="rs" style="aspect=fixed;sketch=0;html=1;dashed=0;whitespace=wrap;verticalLabelPosition=bottom;verticalAlign=top;fillColor=#2875E2;strokeColor=#ffffff;points=[[0.005,0.63,0],[0.1,0.2,0],[0.9,0.2,0],[0.5,0,0],[0.995,0.63,0],[0.72,0.99,0],[0.5,1,0],[0.28,0.99,0]];shape=mxgraph.kubernetes.icon2;prIcon=rs" parent="1" vertex="1">
          <mxGeometry x="340" y="270" width="50" height="48" as="geometry" />
        </mxCell>
        <mxCell id="W2UiMRs52bV-lyf4u7QG-49" value="" style="sketch=0;pointerEvents=1;shadow=0;dashed=0;html=1;strokeColor=none;fillColor=#005F4B;labelPosition=center;verticalLabelPosition=bottom;verticalAlign=top;align=center;outlineConnect=0;shape=mxgraph.veeam2.tag;" parent="1" vertex="1">
          <mxGeometry x="532" y="270" width="28.000000000000004" height="28.000000000000004" as="geometry" />
        </mxCell>
        <mxCell id="A1uc-wqMhshC5u5DjsCO-1" value="&lt;font style=&quot;text-wrap: nowrap; font-size: 10px;&quot;&gt;env: dev&lt;/font&gt;&lt;div style=&quot;text-wrap: nowrap; font-size: 10px;&quot;&gt;&lt;font style=&quot;font-size: 10px;&quot;&gt;app: simple-replicaset&lt;/font&gt;&lt;/div&gt;" style="text;html=1;align=center;verticalAlign=middle;whiteSpace=wrap;rounded=0;" vertex="1" parent="1">
          <mxGeometry x="580" y="270" width="60" height="30" as="geometry" />
        </mxCell>
      </root>
    </mxGraphModel>
  </diagram>
</mxfile>
